<svg width="380" height="380" viewBox="0 0 380 380" fill="none" xmlns="http://www.w3.org/2000/svg">
<g opacity="0.9">
<path d="M374.667 36.5794C374.618 30.4766 372.169 24.6382 367.85 20.3263C363.531 16.0145 357.688 13.5756 351.585 13.5368L28.6081 12.4235C22.4883 12.4407 16.6223 14.8712 12.2838 19.1874C7.94524 23.5036 5.4844 29.3569 5.43556 35.4766C4.38907 241.879 4.4529 228.6 4.4529 229.187C4.38759 241.487 13.6657 251.651 25.3492 251.651L169.047 250.283L168.821 250.944C165.931 259.452 171.381 279.321 184.507 289.259C196.127 298.057 206.729 303.286 219.231 306.3C237.954 340.326 252.666 366.409 252.943 366.905C259.846 367.562 269.533 369.99 288.208 358.603C311.102 344.644 314.972 331.239 317.36 327.955C304.579 310.635 292.998 292.461 282.7 273.559C281.134 268.499 279.637 263.588 278.168 258.773C277.182 255.54 276.219 252.385 275.262 249.269L354.844 248.51C366.325 248.418 375.612 238.342 375.547 226.05L374.667 36.5794Z" fill="white"/>
<path d="M366.446 226.091C366.485 233.396 361.262 239.355 354.772 239.407L25.4344 242.547C18.8668 242.599 13.5141 236.609 13.5534 229.231L14.4968 44.4214L14.5361 35.5152C14.5583 31.7894 16.0567 28.2245 18.703 25.6017C21.3493 22.9789 24.9275 21.5124 28.6532 21.5234L351.552 22.6367C355.261 22.649 358.814 24.1258 361.439 26.7457C364.064 29.3655 365.548 32.9162 365.567 36.6247L365.606 45.5065L366.446 226.091Z" fill="#EAE5DB"/>
<path d="M365.606 45.5072L14.4971 44.4214L14.5364 35.5152C14.5586 31.7894 16.057 28.2245 18.7033 25.6017C21.3496 22.9789 24.9278 21.5124 28.6536 21.5234L351.553 22.6367C355.261 22.649 358.815 24.1258 361.44 26.7457C364.064 29.3655 365.548 32.9162 365.567 36.6247L365.606 45.5072Z" fill="#B2ACA3"/>
<path d="M183.371 119.026H60.8398C55.8722 119.026 51.8452 123.053 51.8452 128.021V141.367C51.8452 146.334 55.8722 150.361 60.8398 150.361H183.371C188.339 150.361 192.366 146.334 192.366 141.367V128.021C192.366 123.053 188.339 119.026 183.371 119.026Z" fill="#7AD001"/>
<path d="M183.371 161.575H60.8398C55.8722 161.575 51.8452 165.602 51.8452 170.57V183.916C51.8452 188.883 55.8722 192.91 60.8398 192.91H183.371C188.339 192.91 192.366 188.883 192.366 183.916V170.57C192.366 165.602 188.339 161.575 183.371 161.575Z" fill="#7AD001"/>
<path d="M103.809 89.6882H56.2545C53.8193 89.6882 51.8452 91.6623 51.8452 94.0975V100.639C51.8452 103.074 53.8193 105.048 56.2545 105.048H103.809C106.244 105.048 108.218 103.074 108.218 100.639V94.0975C108.218 91.6623 106.244 89.6882 103.809 89.6882Z" fill="#00ABFE"/>
<path d="M317.127 83.5525C307.518 84.2316 291.536 83.5525 279.894 73.8558C278.266 72.5119 276.222 71.7768 274.111 71.7768C272 71.7768 269.955 72.5119 268.328 73.8558C256.686 83.5547 240.704 84.2316 231.095 83.5525C230.018 83.4786 228.938 83.6252 227.92 83.9835C226.901 84.3417 225.967 84.904 225.174 85.6359C224.38 86.3678 223.745 87.2539 223.306 88.24C222.867 89.2261 222.634 90.2914 222.621 91.3707C222.455 103.144 222.28 125.48 222.78 151.59C223.305 179.038 248.895 192.848 263.74 198.56C270.416 201.126 277.806 201.126 284.482 198.56C299.326 192.845 324.917 179.04 325.442 151.59C325.942 125.48 325.767 103.144 325.601 91.3707C325.588 90.2914 325.355 89.2261 324.916 88.24C324.477 87.2539 323.841 86.3678 323.048 85.6359C322.255 84.904 321.32 84.3417 320.302 83.9835C319.284 83.6252 318.203 83.4786 317.127 83.5525Z" fill="#FFB020"/>
<path d="M266.989 190.114C254.039 185.131 232.25 173.477 231.828 151.417C231.342 126.003 231.501 104.106 231.654 92.6547C246.635 93.5245 262.49 90.4986 274.12 80.8086C285.764 90.5246 301.562 93.5 316.568 92.6562C316.721 104.107 316.88 126.003 316.394 151.417C315.972 173.477 294.183 185.131 281.232 190.114C276.648 191.875 271.573 191.875 266.989 190.114Z" fill="#BA1E1E"/>
<path d="M245.718 136.307L261.282 160.495C262.062 161.708 263.133 162.707 264.396 163.402C265.66 164.097 267.077 164.466 268.519 164.475C269.961 164.485 271.383 164.135 272.656 163.457C273.929 162.779 275.013 161.794 275.809 160.592L306.568 114.16C307.547 112.682 307.907 110.879 307.569 109.139C307.232 107.399 306.224 105.861 304.764 104.857C303.305 103.853 301.51 103.461 299.766 103.767C298.021 104.072 296.466 105.05 295.435 106.49L267.964 144.89L257.087 128.807C256.575 128.051 255.917 127.405 255.152 126.908C254.386 126.411 253.528 126.074 252.629 125.915C251.73 125.756 250.809 125.78 249.919 125.984C249.03 126.189 248.19 126.57 247.451 127.106C246.04 128.127 245.074 129.65 244.752 131.361C244.43 133.073 244.775 134.843 245.718 136.307Z" fill="#7AD001"/>
<path d="M77.3537 135.889L82.4703 131.376C82.7062 131.18 82.896 130.935 83.0263 130.658C83.1566 130.38 83.2241 130.077 83.2241 129.771C83.2241 129.464 83.1566 129.161 83.0263 128.884C82.896 128.607 82.7062 128.361 82.4703 128.165C81.9609 127.736 81.3161 127.5 80.6497 127.5C79.9834 127.5 79.3385 127.736 78.8291 128.165L76.2871 130.408V127.54C76.2929 127.199 76.2306 126.859 76.1039 126.542C75.9771 126.224 75.7884 125.935 75.5488 125.692C75.3092 125.448 75.0234 125.254 74.7082 125.122C74.393 124.99 74.0546 124.922 73.7129 124.922C73.3711 124.922 73.0327 124.99 72.7175 125.122C72.4023 125.254 72.1165 125.448 71.8769 125.692C71.6373 125.935 71.4486 126.224 71.3218 126.542C71.1951 126.859 71.1328 127.199 71.1386 127.54V130.408L68.5959 128.165C68.0869 127.735 67.442 127.499 66.7756 127.499C66.1093 127.499 65.4644 127.735 64.9554 128.165C64.7194 128.361 64.5295 128.606 64.3991 128.884C64.2688 129.161 64.2012 129.464 64.2012 129.771C64.2012 130.077 64.2688 130.38 64.3991 130.658C64.5295 130.935 64.7194 131.18 64.9554 131.376L70.0721 135.889L64.9554 140.403C64.7194 140.598 64.5295 140.844 64.3991 141.121C64.2688 141.399 64.2012 141.701 64.2012 142.008C64.2012 142.315 64.2688 142.617 64.3991 142.895C64.5295 143.172 64.7194 143.418 64.9554 143.613C65.4644 144.043 66.1093 144.279 66.7756 144.279C67.442 144.279 68.0869 144.043 68.5959 143.613L71.1386 141.371V144.239C71.1501 144.914 71.4263 145.558 71.9078 146.031C72.3894 146.505 73.0376 146.77 73.7129 146.77C74.3881 146.77 75.0364 146.505 75.5179 146.031C75.9994 145.558 76.2757 144.914 76.2871 144.239V141.371L78.8291 143.613C79.3385 144.043 79.9834 144.278 80.6497 144.278C81.3161 144.278 81.9609 144.043 82.4703 143.613C82.7062 143.418 82.896 143.172 83.0263 142.895C83.1566 142.617 83.2241 142.314 83.2241 142.008C83.2241 141.701 83.1566 141.399 83.0263 141.121C82.896 140.844 82.7062 140.598 82.4703 140.403L77.3537 135.889Z" fill="white"/>
<path d="M102.348 135.889L107.464 131.376C107.7 131.18 107.89 130.935 108.02 130.658C108.151 130.38 108.218 130.077 108.218 129.771C108.218 129.464 108.151 129.161 108.02 128.884C107.89 128.606 107.7 128.361 107.464 128.165C106.955 127.735 106.31 127.499 105.644 127.499C104.978 127.499 104.333 127.735 103.824 128.165L101.282 130.408V127.54C101.282 126.858 101.011 126.203 100.528 125.72C100.045 125.237 99.39 124.966 98.7071 124.966C98.0243 124.966 97.3694 125.237 96.8866 125.72C96.4037 126.203 96.1325 126.858 96.1325 127.54V130.408L93.5905 128.165C93.0815 127.735 92.4366 127.499 91.7703 127.499C91.1039 127.499 90.4591 127.735 89.95 128.165C89.7141 128.361 89.5241 128.606 89.3938 128.884C89.2634 129.161 89.1958 129.464 89.1958 129.771C89.1958 130.077 89.2634 130.38 89.3938 130.658C89.5241 130.935 89.7141 131.18 89.95 131.376L95.0667 135.889L89.95 140.403C89.7141 140.598 89.5241 140.844 89.3938 141.121C89.2634 141.399 89.1958 141.701 89.1958 142.008C89.1958 142.315 89.2634 142.617 89.3938 142.895C89.5241 143.172 89.7141 143.418 89.95 143.613C90.4591 144.043 91.1039 144.279 91.7703 144.279C92.4366 144.279 93.0815 144.043 93.5905 143.613L96.1325 141.371V144.239C96.1325 144.922 96.4037 145.577 96.8866 146.06C97.3694 146.542 98.0243 146.814 98.7071 146.814C99.39 146.814 100.045 146.542 100.528 146.06C101.011 145.577 101.282 144.922 101.282 144.239V141.371L103.824 143.613C104.333 144.043 104.978 144.279 105.644 144.279C106.31 144.279 106.955 144.043 107.464 143.613C107.7 143.418 107.89 143.172 108.02 142.895C108.151 142.617 108.218 142.315 108.218 142.008C108.218 141.701 108.151 141.399 108.02 141.121C107.89 140.844 107.7 140.598 107.464 140.403L102.348 135.889Z" fill="white"/>
<path d="M127.342 135.889L132.459 131.376C132.695 131.18 132.885 130.935 133.015 130.658C133.145 130.38 133.213 130.077 133.213 129.771C133.213 129.464 133.145 129.161 133.015 128.884C132.885 128.606 132.695 128.361 132.459 128.165C131.95 127.735 131.305 127.499 130.638 127.499C129.972 127.499 129.327 127.735 128.818 128.165L126.275 130.408V127.54C126.281 127.199 126.219 126.859 126.092 126.542C125.965 126.224 125.777 125.935 125.537 125.692C125.298 125.448 125.012 125.254 124.697 125.122C124.381 124.99 124.043 124.922 123.701 124.922C123.359 124.922 123.021 124.99 122.706 125.122C122.391 125.254 122.105 125.448 121.865 125.692C121.626 125.935 121.437 126.224 121.31 126.542C121.183 126.859 121.121 127.199 121.127 127.54V130.408L118.585 128.165C118.076 127.736 117.431 127.5 116.764 127.5C116.098 127.5 115.453 127.736 114.944 128.165C114.708 128.361 114.518 128.607 114.388 128.884C114.257 129.161 114.19 129.464 114.19 129.771C114.19 130.077 114.257 130.38 114.388 130.658C114.518 130.935 114.708 131.18 114.944 131.376L120.06 135.889L114.944 140.403C114.708 140.598 114.518 140.844 114.388 141.121C114.257 141.399 114.19 141.701 114.19 142.008C114.19 142.314 114.257 142.617 114.388 142.895C114.518 143.172 114.708 143.418 114.944 143.613C115.453 144.043 116.098 144.278 116.764 144.278C117.431 144.278 118.076 144.043 118.585 143.613L121.127 141.371V144.239C121.138 144.914 121.415 145.558 121.896 146.031C122.378 146.505 123.026 146.77 123.701 146.77C124.376 146.77 125.025 146.505 125.506 146.031C125.988 145.558 126.264 144.914 126.275 144.239V141.371L128.818 143.613C129.327 144.043 129.972 144.279 130.638 144.279C131.305 144.279 131.95 144.043 132.459 143.613C132.695 143.418 132.885 143.172 133.015 142.895C133.145 142.617 133.213 142.315 133.213 142.008C133.213 141.701 133.145 141.399 133.015 141.121C132.885 140.844 132.695 140.598 132.459 140.403L127.342 135.889Z" fill="white"/>
<path d="M152.337 135.889L157.454 131.376C157.69 131.18 157.879 130.935 158.01 130.658C158.14 130.38 158.208 130.077 158.208 129.771C158.208 129.464 158.14 129.161 158.01 128.884C157.879 128.607 157.69 128.361 157.454 128.165C156.944 127.736 156.299 127.5 155.633 127.5C154.967 127.5 154.322 127.736 153.813 128.165L151.271 130.408V127.54C151.276 127.199 151.214 126.859 151.087 126.542C150.961 126.224 150.772 125.935 150.532 125.692C150.293 125.448 150.007 125.254 149.692 125.122C149.376 124.99 149.038 124.922 148.696 124.922C148.354 124.922 148.016 124.99 147.701 125.122C147.386 125.254 147.1 125.448 146.86 125.692C146.621 125.935 146.432 126.224 146.305 126.542C146.178 126.859 146.116 127.199 146.122 127.54V130.408L143.579 128.165C143.07 127.735 142.425 127.499 141.759 127.499C141.093 127.499 140.448 127.735 139.939 128.165C139.703 128.361 139.513 128.606 139.383 128.884C139.252 129.161 139.185 129.464 139.185 129.771C139.185 130.077 139.252 130.38 139.383 130.658C139.513 130.935 139.703 131.18 139.939 131.376L145.055 135.889L139.939 140.403C139.703 140.598 139.513 140.844 139.383 141.121C139.252 141.399 139.185 141.701 139.185 142.008C139.185 142.315 139.252 142.617 139.383 142.895C139.513 143.172 139.703 143.418 139.939 143.613C140.448 144.043 141.093 144.279 141.759 144.279C142.425 144.279 143.07 144.043 143.579 143.613L146.122 141.371V144.239C146.133 144.914 146.41 145.558 146.891 146.031C147.373 146.505 148.021 146.77 148.696 146.77C149.372 146.77 150.02 146.505 150.501 146.031C150.983 145.558 151.259 144.914 151.271 144.239V141.371L153.813 143.613C154.322 144.043 154.967 144.278 155.633 144.278C156.299 144.278 156.944 144.043 157.454 143.613C157.69 143.418 157.879 143.172 158.01 142.895C158.14 142.617 158.208 142.314 158.208 142.008C158.208 141.701 158.14 141.399 158.01 141.121C157.879 140.844 157.69 140.598 157.454 140.403L152.337 135.889Z" fill="white"/>
<path d="M177.331 135.889L182.448 131.376C182.684 131.18 182.874 130.935 183.004 130.658C183.134 130.38 183.202 130.077 183.202 129.771C183.202 129.464 183.134 129.161 183.004 128.884C182.874 128.606 182.684 128.361 182.448 128.165C181.939 127.735 181.294 127.499 180.627 127.499C179.961 127.499 179.316 127.735 178.807 128.165L176.265 130.408V127.54C176.265 126.858 175.994 126.203 175.511 125.72C175.028 125.237 174.373 124.966 173.691 124.966C173.008 124.966 172.353 125.237 171.87 125.72C171.387 126.203 171.116 126.858 171.116 127.54V130.408L168.574 128.165C168.065 127.735 167.42 127.499 166.754 127.499C166.087 127.499 165.442 127.735 164.933 128.165C164.697 128.361 164.508 128.606 164.377 128.884C164.247 129.161 164.179 129.464 164.179 129.771C164.179 130.077 164.247 130.38 164.377 130.658C164.508 130.935 164.697 131.18 164.933 131.376L170.05 135.889L164.933 140.403C164.697 140.598 164.508 140.844 164.377 141.121C164.247 141.399 164.179 141.701 164.179 142.008C164.179 142.315 164.247 142.617 164.377 142.895C164.508 143.172 164.697 143.418 164.933 143.613C165.442 144.043 166.087 144.279 166.754 144.279C167.42 144.279 168.065 144.043 168.574 143.613L171.116 141.371V144.239C171.116 144.922 171.387 145.577 171.87 146.06C172.353 146.542 173.008 146.814 173.691 146.814C174.373 146.814 175.028 146.542 175.511 146.06C175.994 145.577 176.265 144.922 176.265 144.239V141.371L178.807 143.613C179.316 144.043 179.961 144.279 180.627 144.279C181.294 144.279 181.939 144.043 182.448 143.613C182.684 143.418 182.874 143.172 183.004 142.895C183.134 142.617 183.202 142.315 183.202 142.008C183.202 141.701 183.134 141.399 183.004 141.121C182.874 140.844 182.684 140.598 182.448 140.403L177.331 135.889Z" fill="white"/>
<path d="M77.3537 177.243L82.4703 172.729C82.7062 172.534 82.896 172.288 83.0263 172.011C83.1566 171.733 83.2241 171.43 83.2241 171.124C83.2241 170.817 83.1566 170.515 83.0263 170.237C82.896 169.96 82.7062 169.714 82.4703 169.519C81.9609 169.089 81.3161 168.853 80.6497 168.853C79.9834 168.853 79.3385 169.089 78.8291 169.519L76.2871 171.761V168.893C76.2757 168.218 75.9994 167.574 75.5179 167.101C75.0364 166.627 74.3881 166.362 73.7129 166.362C73.0376 166.362 72.3894 166.627 71.9078 167.101C71.4263 167.574 71.1501 168.218 71.1386 168.893V171.761L68.5959 169.516C68.0869 169.086 67.442 168.85 66.7756 168.85C66.1093 168.85 65.4644 169.086 64.9554 169.516C64.7194 169.711 64.5295 169.957 64.3991 170.234C64.2688 170.512 64.2012 170.814 64.2012 171.121C64.2012 171.428 64.2688 171.73 64.3991 172.008C64.5295 172.285 64.7194 172.531 64.9554 172.726L70.0721 177.24L64.9554 181.753C64.7194 181.949 64.5295 182.194 64.3991 182.471C64.2688 182.749 64.2012 183.052 64.2012 183.358C64.2012 183.665 64.2688 183.968 64.3991 184.245C64.5295 184.522 64.7194 184.768 64.9554 184.964C65.4644 185.394 66.1093 185.63 66.7756 185.63C67.442 185.63 68.0869 185.394 68.5959 184.964L71.1386 182.727V185.594C71.1328 185.935 71.1951 186.275 71.3218 186.592C71.4486 186.91 71.6373 187.199 71.8769 187.442C72.1165 187.686 72.4023 187.88 72.7175 188.012C73.0327 188.144 73.3711 188.212 73.7129 188.212C74.0546 188.212 74.393 188.144 74.7082 188.012C75.0234 187.88 75.3092 187.686 75.5488 187.442C75.7884 187.199 75.9771 186.91 76.1039 186.592C76.2306 186.275 76.2929 185.935 76.2871 185.594V182.727L78.8291 184.969C79.3385 185.398 79.9834 185.634 80.6497 185.634C81.3161 185.634 81.9609 185.398 82.4703 184.969C82.7062 184.773 82.896 184.528 83.0263 184.25C83.1566 183.973 83.2241 183.67 83.2241 183.363C83.2241 183.057 83.1566 182.754 83.0263 182.477C82.896 182.199 82.7062 181.954 82.4703 181.758L77.3537 177.243Z" fill="white"/>
<path d="M102.348 177.243L107.464 172.729C107.7 172.534 107.89 172.288 108.021 172.011C108.151 171.733 108.219 171.431 108.219 171.124C108.219 170.817 108.151 170.515 108.021 170.237C107.89 169.96 107.7 169.714 107.464 169.519C106.955 169.089 106.311 168.853 105.644 168.853C104.978 168.853 104.333 169.089 103.824 169.519L101.282 171.761V168.893C101.282 168.21 101.011 167.555 100.528 167.072C100.045 166.59 99.3902 166.318 98.7074 166.318C98.0245 166.318 97.3697 166.59 96.8868 167.072C96.404 167.555 96.1327 168.21 96.1327 168.893V171.761L93.59 169.516C93.081 169.086 92.4361 168.85 91.7698 168.85C91.1034 168.85 90.4586 169.086 89.9496 169.516C89.7136 169.711 89.5236 169.957 89.3933 170.234C89.2629 170.512 89.1953 170.814 89.1953 171.121C89.1953 171.428 89.2629 171.73 89.3933 172.008C89.5236 172.285 89.7136 172.531 89.9496 172.726L95.0662 177.24L89.9496 181.753C89.7136 181.949 89.5236 182.194 89.3933 182.471C89.2629 182.749 89.1953 183.052 89.1953 183.358C89.1953 183.665 89.2629 183.968 89.3933 184.245C89.5236 184.522 89.7136 184.768 89.9496 184.964C90.4586 185.394 91.1034 185.63 91.7698 185.63C92.4361 185.63 93.081 185.394 93.59 184.964L96.132 182.721V185.588C96.132 186.271 96.4032 186.926 96.8861 187.409C97.3689 187.892 98.0238 188.163 98.7066 188.163C99.3895 188.163 100.044 187.892 100.527 187.409C101.01 186.926 101.281 186.271 101.281 185.588V182.727L103.823 184.969C104.332 185.399 104.977 185.635 105.643 185.635C106.31 185.635 106.955 185.399 107.464 184.969C107.7 184.773 107.89 184.528 108.02 184.25C108.15 183.973 108.218 183.67 108.218 183.363C108.218 183.057 108.15 182.754 108.02 182.477C107.89 182.199 107.7 181.954 107.464 181.758L102.348 177.243Z" fill="white"/>
<path d="M127.342 177.243L132.459 172.729C132.695 172.534 132.885 172.288 133.015 172.011C133.145 171.733 133.213 171.431 133.213 171.124C133.213 170.817 133.145 170.515 133.015 170.237C132.885 169.96 132.695 169.714 132.459 169.519C131.95 169.089 131.305 168.853 130.638 168.853C129.972 168.853 129.327 169.089 128.818 169.519L126.275 171.761V168.893C126.264 168.218 125.988 167.574 125.506 167.101C125.025 166.627 124.376 166.362 123.701 166.362C123.026 166.362 122.378 166.627 121.896 167.101C121.415 167.574 121.138 168.218 121.127 168.893V171.761L118.585 169.519C118.076 169.089 117.431 168.853 116.764 168.853C116.098 168.853 115.453 169.089 114.944 169.519C114.708 169.714 114.518 169.96 114.388 170.237C114.257 170.515 114.19 170.817 114.19 171.124C114.19 171.43 114.257 171.733 114.388 172.011C114.518 172.288 114.708 172.534 114.944 172.729L120.06 177.243L114.944 181.756C114.708 181.952 114.518 182.197 114.388 182.474C114.257 182.752 114.19 183.055 114.19 183.361C114.19 183.668 114.257 183.97 114.388 184.248C114.518 184.525 114.708 184.771 114.944 184.966C115.453 185.396 116.098 185.632 116.764 185.632C117.431 185.632 118.076 185.396 118.585 184.966L121.125 182.727V185.594C121.119 185.935 121.181 186.275 121.308 186.592C121.435 186.91 121.623 187.199 121.863 187.442C122.103 187.686 122.388 187.88 122.704 188.012C123.019 188.144 123.357 188.212 123.699 188.212C124.041 188.212 124.379 188.144 124.694 188.012C125.01 187.88 125.295 187.686 125.535 187.442C125.775 187.199 125.963 186.91 126.09 186.592C126.217 186.275 126.279 185.935 126.273 185.594V182.727L128.816 184.969C129.325 185.399 129.97 185.635 130.636 185.635C131.303 185.635 131.947 185.399 132.456 184.969C132.692 184.773 132.882 184.528 133.013 184.25C133.143 183.973 133.211 183.67 133.211 183.363C133.211 183.057 133.143 182.754 133.013 182.477C132.882 182.199 132.692 181.954 132.456 181.758L127.342 177.243Z" fill="white"/>
<path d="M152.337 177.243L157.454 172.729C157.69 172.534 157.879 172.288 158.01 172.011C158.14 171.733 158.208 171.43 158.208 171.124C158.208 170.817 158.14 170.515 158.01 170.237C157.879 169.96 157.69 169.714 157.454 169.519C156.944 169.089 156.299 168.853 155.633 168.853C154.967 168.853 154.322 169.089 153.813 169.519L151.271 171.761V168.893C151.259 168.218 150.983 167.574 150.501 167.101C150.02 166.627 149.372 166.362 148.696 166.362C148.021 166.362 147.373 166.627 146.891 167.101C146.41 167.574 146.133 168.218 146.122 168.893V171.761L143.579 169.519C143.07 169.089 142.425 168.853 141.759 168.853C141.093 168.853 140.448 169.089 139.939 169.519C139.703 169.714 139.513 169.96 139.383 170.237C139.252 170.515 139.185 170.817 139.185 171.124C139.185 171.431 139.252 171.733 139.383 172.011C139.513 172.288 139.703 172.534 139.939 172.729L145.055 177.243L139.939 181.756C139.703 181.951 139.513 182.197 139.383 182.474C139.252 182.752 139.185 183.055 139.185 183.361C139.185 183.668 139.252 183.971 139.383 184.248C139.513 184.525 139.703 184.771 139.939 184.966C140.448 185.397 141.093 185.633 141.759 185.633C142.425 185.633 143.07 185.397 143.579 184.966L146.122 182.724V185.591C146.116 185.933 146.178 186.273 146.305 186.59C146.432 186.907 146.621 187.196 146.86 187.44C147.1 187.684 147.386 187.877 147.701 188.01C148.016 188.142 148.354 188.21 148.696 188.21C149.038 188.21 149.376 188.142 149.692 188.01C150.007 187.877 150.293 187.684 150.532 187.44C150.772 187.196 150.961 186.907 151.087 186.59C151.214 186.273 151.276 185.933 151.271 185.591V182.727L153.813 184.969C154.322 185.398 154.967 185.634 155.633 185.634C156.299 185.634 156.944 185.398 157.454 184.969C157.69 184.773 157.879 184.528 158.01 184.25C158.14 183.973 158.208 183.67 158.208 183.363C158.208 183.057 158.14 182.754 158.01 182.477C157.879 182.199 157.69 181.954 157.454 181.758L152.337 177.243Z" fill="white"/>
<path d="M177.331 177.243L182.448 172.729C182.684 172.534 182.874 172.288 183.004 172.011C183.134 171.733 183.202 171.431 183.202 171.124C183.202 170.817 183.134 170.515 183.004 170.237C182.874 169.96 182.684 169.714 182.448 169.519C181.939 169.089 181.294 168.853 180.627 168.853C179.961 168.853 179.316 169.089 178.807 169.519L176.265 171.761V168.893C176.265 168.21 175.994 167.555 175.511 167.072C175.028 166.59 174.373 166.318 173.691 166.318C173.008 166.318 172.353 166.59 171.87 167.072C171.387 167.555 171.116 168.21 171.116 168.893V171.761L168.574 169.519C168.065 169.089 167.42 168.853 166.754 168.853C166.087 168.853 165.442 169.089 164.933 169.519C164.697 169.714 164.508 169.96 164.377 170.237C164.247 170.515 164.179 170.817 164.179 171.124C164.179 171.431 164.247 171.733 164.377 172.011C164.508 172.288 164.697 172.534 164.933 172.729L170.05 177.243L164.933 181.756C164.697 181.951 164.508 182.197 164.377 182.474C164.247 182.752 164.179 183.055 164.179 183.361C164.179 183.668 164.247 183.971 164.377 184.248C164.508 184.525 164.697 184.771 164.933 184.966C165.442 185.397 166.087 185.633 166.754 185.633C167.42 185.633 168.065 185.397 168.574 184.966L171.116 182.724V185.591C171.116 186.274 171.387 186.929 171.87 187.412C172.353 187.895 173.008 188.166 173.691 188.166C174.373 188.166 175.028 187.895 175.511 187.412C175.994 186.929 176.265 186.274 176.265 185.591V182.727L178.807 184.969C179.316 185.399 179.961 185.635 180.627 185.635C181.294 185.635 181.939 185.399 182.448 184.969C182.684 184.773 182.874 184.528 183.004 184.25C183.134 183.973 183.202 183.67 183.202 183.363C183.202 183.057 183.134 182.754 183.004 182.477C182.874 182.199 182.684 181.954 182.448 181.758L177.331 177.243Z" fill="white"/>
<path d="M184.922 224.666C181.643 223.859 178.164 225.631 175.991 228.22C173.819 230.808 172.688 234.083 171.602 237.281C170.086 241.745 174.121 257.809 184.164 265.41C199.668 277.147 212.504 281.639 231.865 283.445C228.561 274.088 224.753 264.917 220.457 255.972C217.079 248.938 213.332 241.945 207.929 236.315C201.684 229.804 193.113 226.68 184.922 224.666Z" fill="#FFAD92"/>
<path d="M197.325 229.571C192.657 231.467 187.575 233.743 185.46 238.316C184.297 240.831 182.929 244.248 184.584 246.469C190.002 253.735 197.309 264.643 207.443 268.944C210.445 270.218 213.319 270.308 215.304 267.721C216.098 266.564 216.591 265.228 216.738 263.832C217.605 258.284 216.277 252.551 213.775 247.521C211.273 242.491 207.648 238.109 203.755 234.061C201.765 231.986 199.143 229.818 197.325 229.571Z" fill="#ED6C4D"/>
<path d="M195.96 261.179C195.792 259.982 195.862 258.762 196.167 257.592C196.472 256.421 197.005 255.323 197.736 254.359C198.262 253.622 198.85 252.932 199.495 252.297C195.879 251.346 192.246 250.219 189.011 248.181C188.594 247.918 188.299 247.501 188.19 247.021C188.081 246.541 188.167 246.038 188.43 245.621C188.692 245.205 189.109 244.91 189.589 244.801C190.069 244.692 190.573 244.778 190.989 245.041C194.385 247.18 198.559 248.239 202.603 249.264C205.673 250.565 205.751 251.763 204.524 252.788C203.12 253.859 201.859 255.104 200.771 256.494C199.876 257.641 199.461 259.091 199.614 260.538C199.66 260.779 199.658 261.028 199.608 261.268C199.557 261.509 199.459 261.738 199.319 261.94C199.18 262.143 199.001 262.316 198.794 262.448C198.587 262.581 198.355 262.672 198.113 262.714C197.871 262.757 197.622 262.751 197.382 262.696C197.142 262.642 196.915 262.541 196.715 262.398C196.515 262.255 196.345 262.074 196.215 261.864C196.085 261.655 195.998 261.422 195.96 261.179Z" fill="#C6523C"/>
<path d="M300.762 311.997C295.506 321.452 286.872 328.611 277.636 334.243C270.097 338.839 261.515 342.666 252.733 341.751C231.009 303.137 210.597 265.745 190.186 228.353C183.908 210.554 177.289 194.324 170.67 178.094C169.839 176.059 168.996 173.958 169 171.759C169.004 169.561 170.064 167.215 172.087 166.355C175.433 164.932 178.856 168.062 181.086 170.934C189.729 181.966 197.056 193.97 202.917 206.701C217.503 203.632 233.262 200.672 246.845 206.808C249.288 207.788 251.456 209.348 253.161 211.353C255.017 213.751 255.739 216.814 256.438 221.561C260.423 234.123 264.177 246.758 268.432 260.498C278.066 278.356 288.866 295.56 300.762 311.997Z" fill="#FFAD92"/>
<path d="M215.149 242.686C214.984 242.223 215.009 241.713 215.22 241.268C215.431 240.824 215.809 240.481 216.272 240.316C223.701 237.667 242.423 231.893 252.046 230.549C252.29 230.51 252.539 230.52 252.778 230.579C253.018 230.637 253.244 230.743 253.442 230.89C253.641 231.036 253.808 231.221 253.934 231.433C254.06 231.645 254.143 231.881 254.177 232.125C254.211 232.369 254.196 232.618 254.133 232.857C254.07 233.095 253.959 233.319 253.809 233.514C253.658 233.71 253.47 233.873 253.255 233.995C253.041 234.117 252.804 234.195 252.559 234.224C243.634 235.472 225.286 241.042 217.522 243.811C217.293 243.893 217.049 243.929 216.805 243.917C216.562 243.905 216.323 243.845 216.102 243.741C215.882 243.636 215.684 243.489 215.521 243.309C215.357 243.128 215.231 242.916 215.149 242.686Z" fill="#ED6C4D"/>
<path d="M212.297 234.517L207.042 224.209C206.931 223.992 206.864 223.755 206.844 223.512C206.825 223.268 206.854 223.024 206.929 222.792C207.004 222.56 207.124 222.345 207.282 222.159C207.441 221.974 207.634 221.821 207.851 221.71C208.069 221.6 208.306 221.533 208.549 221.514C208.792 221.495 209.037 221.524 209.269 221.599C209.501 221.675 209.715 221.796 209.901 221.954C210.086 222.113 210.238 222.307 210.349 222.524L215.603 232.832C215.714 233.049 215.781 233.286 215.8 233.528C215.819 233.771 215.79 234.016 215.715 234.247C215.64 234.479 215.519 234.694 215.361 234.879C215.203 235.065 215.01 235.217 214.793 235.328C214.576 235.438 214.339 235.505 214.096 235.524C213.853 235.543 213.609 235.515 213.377 235.439C213.145 235.364 212.93 235.244 212.745 235.086C212.56 234.927 212.407 234.734 212.297 234.517Z" fill="#ED6C4D"/>
<path d="M225.433 231.85C224.414 230.83 223.479 229.74 222.49 228.585C220.995 226.754 219.361 225.042 217.603 223.464C217.236 223.141 217.011 222.686 216.977 222.199C216.943 221.711 217.103 221.23 217.422 220.86C217.741 220.49 218.193 220.26 218.68 220.221C219.167 220.182 219.65 220.337 220.024 220.652C221.925 222.351 223.691 224.196 225.307 226.168C226.25 227.267 227.139 228.304 228.059 229.225C228.232 229.397 228.37 229.602 228.464 229.828C228.558 230.053 228.607 230.295 228.607 230.539C228.608 230.784 228.56 231.026 228.466 231.251C228.373 231.477 228.236 231.682 228.063 231.855C227.89 232.028 227.685 232.165 227.459 232.258C227.233 232.351 226.991 232.399 226.747 232.398C226.503 232.397 226.261 232.348 226.035 232.254C225.81 232.16 225.605 232.022 225.433 231.848V231.85Z" fill="#ED6C4D"/>
<path d="M235.824 229.37C234.717 228.275 233.814 227.218 232.941 226.187C231.738 224.67 230.378 223.284 228.884 222.053C228.688 221.904 228.523 221.718 228.4 221.505C228.276 221.292 228.196 221.057 228.164 220.813C228.133 220.569 228.15 220.321 228.215 220.084C228.28 219.847 228.391 219.625 228.543 219.431C228.694 219.237 228.883 219.076 229.098 218.955C229.312 218.835 229.549 218.759 229.793 218.731C230.038 218.703 230.285 218.724 230.521 218.792C230.758 218.861 230.978 218.976 231.17 219.13C232.864 220.513 234.407 222.073 235.771 223.784C236.593 224.748 237.443 225.75 238.436 226.732C238.785 227.078 238.984 227.549 238.986 228.041C238.989 228.533 238.796 229.006 238.45 229.356C238.279 229.529 238.075 229.667 237.85 229.761C237.626 229.856 237.385 229.905 237.141 229.906C236.649 229.909 236.176 229.716 235.826 229.37H235.824Z" fill="#ED6C4D"/>
<path d="M245.64 227.474C243.962 225.402 242.158 223.053 239.836 221.804C239.418 221.563 239.111 221.168 238.979 220.704C238.848 220.24 238.902 219.743 239.131 219.318C239.36 218.894 239.745 218.575 240.205 218.429C240.665 218.284 241.163 218.323 241.594 218.539C244.493 220.097 246.487 222.626 248.513 225.128C248.671 225.316 248.79 225.534 248.864 225.768C248.937 226.003 248.963 226.25 248.94 226.494C248.917 226.739 248.845 226.977 248.73 227.194C248.614 227.41 248.457 227.602 248.267 227.758C248.076 227.913 247.857 228.029 247.622 228.099C247.386 228.17 247.139 228.192 246.894 228.166C246.65 228.14 246.413 228.065 246.198 227.947C245.983 227.828 245.793 227.668 245.64 227.476V227.474Z" fill="#ED6C4D"/>
</g>
</svg>
