<svg width="32" height="32" viewBox="0 0 32 32" fill="none" xmlns="http://www.w3.org/2000/svg">
<path d="M31.9998 27.4818C31.9825 28.0975 31.8416 28.7035 31.5856 29.2637C31.3295 29.8239 30.9635 30.3269 30.5092 30.7429C30.055 31.1589 29.5217 31.4794 28.9412 31.6853C28.3607 31.8912 27.7447 31.9783 27.1299 31.9415C23.2892 31.9629 19.4485 31.9415 15.6079 31.9415C15.3713 31.9415 15.1445 31.8475 14.9772 31.6802C14.8099 31.513 14.7159 31.2861 14.7159 31.0495C14.7159 30.813 14.8099 30.5861 14.9772 30.4189C15.1445 30.2516 15.3713 30.1576 15.6079 30.1576C19.5324 30.1576 23.4569 30.2147 27.3814 30.1576C29.3561 30.1291 30.2159 28.6449 30.2159 26.8789V4.64657C30.2297 4.08513 30.0718 3.53286 29.7632 3.06361C29.4546 2.59437 29.0101 2.23052 28.4892 2.02072C27.8733 1.85265 27.2324 1.79526 26.5965 1.85125H15.6079C15.3713 1.85125 15.1445 1.75728 14.9772 1.59001C14.8099 1.42274 14.7159 1.19588 14.7159 0.959323C14.7159 0.722767 14.8099 0.495901 14.9772 0.328631C15.1445 0.161362 15.3713 0.0673904 15.6079 0.0673904C19.5752 0.0673904 23.5728 -0.084238 27.5366 0.0673904C28.1436 0.0827416 28.7415 0.218658 29.2954 0.467232C29.8494 0.715806 30.3484 1.07207 30.7634 1.5153C31.1784 1.95853 31.5012 2.47987 31.7128 3.04898C31.9244 3.61809 32.0208 4.22361 31.9962 4.83031L31.9998 27.4818Z" fill="#4A4A4A"/>
<path d="M0.26131 15.3785C0.110595 15.5246 0.0223619 15.7234 0.0151366 15.9332C0.0151366 15.96 0.0151366 15.9832 0.00443339 16.0099C-0.0062698 16.0367 0.00443346 16.0581 0.0151366 16.0831C0.0222745 16.2934 0.110485 16.4929 0.26131 16.6396L6.80631 23.1846C6.97453 23.3471 7.19983 23.437 7.43369 23.435C7.66756 23.433 7.89126 23.3392 8.05663 23.1738C8.22201 23.0084 8.31581 22.7847 8.31784 22.5508C8.31987 22.317 8.22997 22.0917 8.0675 21.9235L3.04592 16.9001H22.2082C22.4447 16.9001 22.6716 16.8061 22.8389 16.6389C23.0062 16.4716 23.1001 16.2447 23.1001 16.0082C23.1001 15.7716 23.0062 15.5447 22.8389 15.3775C22.6716 15.2102 22.4447 15.1162 22.2082 15.1162H3.04592L8.0675 10.0929C8.22997 9.92465 8.31987 9.69934 8.31784 9.46548C8.31581 9.23162 8.22201 9.00791 8.05663 8.84254C7.89126 8.67717 7.66756 8.58336 7.43369 8.58133C7.19983 8.5793 6.97453 8.6692 6.80631 8.83167L0.26131 15.3785Z" fill="#4A4A4A"/>
</svg>
