<svg width="10" height="10" viewBox="0 0 10 10" fill="none" xmlns="http://www.w3.org/2000/svg">
<path d="M8.61202 4.14H5.86002V1.388C5.86002 0.912 5.47602 0.528 5.00002 0.528C4.52402 0.528 4.14002 0.912 4.14002 1.388V4.14H1.38802C0.912015 4.14 0.528015 4.524 0.528015 5C0.528015 5.476 0.912015 5.86 1.38802 5.86H4.14002V8.612C4.14002 9.088 4.52402 9.472 5.00002 9.472C5.47602 9.472 5.86002 9.088 5.86002 8.612V5.86H8.61202C9.08802 5.86 9.47202 5.476 9.47202 5C9.47202 4.524 9.08802 4.14 8.61202 4.14Z" fill="black"/>
</svg>
