<svg width="17" height="17" viewBox="0 0 17 17" fill="none" xmlns="http://www.w3.org/2000/svg">
<path d="M15.9588 14.1684L11.7088 9.91844C12.5106 8.6747 12.8241 7.17836 12.589 5.71736C12.3538 4.25637 11.5867 2.93395 10.4351 2.00459C9.28353 1.07524 7.82894 0.604615 6.35123 0.683289C4.87353 0.761964 3.47713 1.38438 2.43075 2.43075C1.38438 3.47713 0.761964 4.87353 0.683289 6.35123C0.604615 7.82894 1.07524 9.28353 2.00459 10.4351C2.93395 11.5867 4.25637 12.3538 5.71736 12.589C7.17836 12.8241 8.6747 12.5106 9.91844 11.7088L14.1684 15.9588C14.286 16.0761 14.4255 16.1692 14.579 16.2327C14.7326 16.2961 14.8971 16.3287 15.0632 16.3286C15.2293 16.3285 15.3938 16.2956 15.5472 16.2319C15.7007 16.1683 15.84 16.075 15.9574 15.9574C16.0748 15.8399 16.1679 15.7003 16.2313 15.5468C16.2948 15.3933 16.3274 15.2288 16.3273 15.0627C16.3271 14.8965 16.2943 14.7321 16.2306 14.5786C16.1669 14.4252 16.0736 14.2858 15.9561 14.1684H15.9588ZM2.99094 10.3594C2.26544 9.63127 1.77196 8.70452 1.57279 7.69615C1.37363 6.68778 1.47771 5.643 1.87191 4.69374C2.2661 3.74448 2.93273 2.93331 3.78761 2.36265C4.6425 1.79199 5.6473 1.48743 6.67516 1.48743C7.70301 1.48743 8.70782 1.79199 9.5627 2.36265C10.4176 2.93331 11.0842 3.74448 11.4784 4.69374C11.8726 5.643 11.9767 6.68778 11.7775 7.69615C11.5784 8.70452 11.0849 9.63127 10.3594 10.3594C9.87583 10.8437 9.30154 11.2279 8.66936 11.49C8.03718 11.7522 7.35953 11.8871 6.67516 11.8871C5.99078 11.8871 5.31313 11.7522 4.68095 11.49C4.04878 11.2279 3.47449 10.8437 2.99094 10.3594ZM15.4062 15.4062C15.3628 15.4497 15.3113 15.4842 15.2545 15.5077C15.1978 15.5312 15.137 15.5433 15.0755 15.5433C15.0141 15.5433 14.9533 15.5312 14.8966 15.5077C14.8398 15.4842 14.7883 15.4497 14.7448 15.4062L10.5745 11.2359C10.6914 11.135 11.135 10.7047 11.2359 10.5719L15.4062 14.7316C15.4514 14.7754 15.4873 14.8278 15.5118 14.8858C15.5363 14.9437 15.5489 15.006 15.5489 15.0689C15.5489 15.1318 15.5363 15.1941 15.5118 15.252C15.4873 15.31 15.4514 15.3624 15.4062 15.4062Z" fill="#312F2F"/>
</svg>
