<svg width="22" height="21" viewBox="0 0 22 21" fill="none" xmlns="http://www.w3.org/2000/svg">
<path d="M0.456549 21C0.336066 21 0.218857 20.9534 0.131932 20.8673C0.0173415 20.7539 -0.0268575 20.5892 0.0161956 20.4352L1.41109 15.4499C0.542656 13.9129 0.0847861 12.1743 0.0854408 10.4093C0.0878963 4.66953 4.86041 0 10.7245 0C13.5688 0.00112152 16.2413 1.08547 18.2501 3.05294C20.2586 5.02057 21.3642 7.63612 21.3634 10.4176C21.3607 16.1576 16.5882 20.8274 10.7245 20.8274C10.7245 20.8274 10.7201 20.8274 10.7199 20.8274C9.0071 20.8268 7.30904 20.4183 5.79711 19.6444L0.572285 20.9854C0.53398 20.9952 0.495019 21 0.456549 21Z" fill="#E5E5E5"/>
<path d="M0.456543 20.5532L1.90103 15.3905C1.01001 13.8795 0.54134 12.1655 0.541995 10.4095C0.544286 4.91611 5.11185 0.446846 10.7245 0.446846C13.4481 0.447968 16.0046 1.48553 17.9271 3.36873C19.8495 5.25192 20.9078 7.75516 20.9068 10.4175C20.9043 15.9107 16.3361 20.3806 10.7245 20.3806C10.7246 20.3806 10.7242 20.3806 10.7245 20.3806H10.7201C9.01594 20.38 7.34161 19.9616 5.8544 19.1678L0.456543 20.5532ZM6.10437 17.3642L6.4136 17.5435C7.71272 18.2981 9.20223 18.6972 10.7212 18.698H10.7245C15.389 18.698 19.1855 14.9829 19.1875 10.4168C19.1883 8.20409 18.3089 6.12334 16.711 4.55818C15.113 2.99302 12.9883 2.13057 10.7276 2.12961C6.05935 2.12961 2.26298 5.84425 2.26117 10.4101C2.26052 11.9748 2.70775 13.4985 3.55506 14.8171L3.75641 15.1304L2.90124 18.1861L6.10437 17.3642Z" fill="white"/>
<path d="M0.810669 20.2053L2.20523 15.2211C1.34482 13.7625 0.892519 12.1076 0.89301 10.4127C0.895138 5.10949 5.30473 0.794998 10.7227 0.794998C13.3524 0.79612 15.8205 1.7978 17.6761 3.61578C19.5321 5.43377 20.5536 7.85033 20.5526 10.4202C20.5503 15.7236 16.1405 20.0385 10.7232 20.0385C10.7234 20.0385 10.7227 20.0385 10.7232 20.0385H10.7188C9.07377 20.0379 7.45723 19.6338 6.02158 18.868L0.810669 20.2053Z" fill="#64B161"/>
<path d="M0.456543 20.5532L1.90103 15.3905C1.01001 13.8795 0.54134 12.1655 0.541995 10.4095C0.544286 4.91611 5.11185 0.446846 10.7245 0.446846C13.4481 0.447968 16.0046 1.48553 17.9271 3.36873C19.8495 5.25192 20.9078 7.75516 20.9068 10.4175C20.9043 15.9107 16.3361 20.3806 10.7245 20.3806C10.7246 20.3806 10.7242 20.3806 10.7245 20.3806H10.7201C9.01594 20.38 7.34161 19.9616 5.8544 19.1678L0.456543 20.5532ZM6.10437 17.3642L6.4136 17.5435C7.71272 18.2981 9.20223 18.6972 10.7212 18.698H10.7245C15.389 18.698 19.1855 14.9829 19.1875 10.4168C19.1883 8.20409 18.3089 6.12334 16.711 4.55818C15.113 2.99302 12.9883 2.13057 10.7276 2.12961C6.05935 2.12961 2.26298 5.84425 2.26117 10.4101C2.26052 11.9748 2.70775 13.4985 3.55506 14.8171L3.75641 15.1304L2.90124 18.1861L6.10437 17.3642Z" fill="white"/>
<path fill-rule="evenodd" clip-rule="evenodd" d="M8.17961 6.24447C7.98906 5.82983 7.78836 5.8215 7.60698 5.81429C7.45867 5.80804 7.28891 5.80836 7.11948 5.80836C6.94989 5.80836 6.67422 5.87084 6.44111 6.11998C6.20784 6.36912 5.55042 6.97154 5.55042 8.19672C5.55042 9.42206 6.46223 10.6059 6.58942 10.7722C6.71662 10.9384 8.34953 13.5329 10.9355 14.5311C13.0847 15.3607 13.522 15.1957 13.9885 15.1542C14.4551 15.1127 15.4937 14.5517 15.7057 13.9703C15.9179 13.3889 15.9179 12.8906 15.8542 12.7863C15.7905 12.6826 15.6209 12.6203 15.3665 12.4958C15.1121 12.3713 13.8613 11.7688 13.628 11.6858C13.3948 11.6026 13.2252 11.5613 13.0556 11.8106C12.8858 12.0596 12.3987 12.6203 12.2502 12.7863C12.1017 12.9528 11.9532 12.9736 11.6988 12.8489C11.4444 12.7241 10.625 12.4614 9.65291 11.613C8.89661 10.9531 8.38587 10.1379 8.23739 9.88861C8.08908 9.63964 8.23494 9.51659 8.3492 9.38056C8.55497 9.13559 8.90021 8.69516 8.98501 8.52917C9.06981 8.36286 9.02741 8.21755 8.96389 8.0929C8.90021 7.96841 8.40568 6.73698 8.17961 6.24447Z" fill="white"/>
</svg>
